# xmcd
#
# Track frame offsets: 
#        150
#        3531
#        18998
#        34549
#        64808
#        89721
#        108698
#        133739
#        154571
#        174142
#        196299
#        220088
#        221514
#        237120
#        244986
#
# Disc length: 3549 seconds
#
# Revision: 0
# Processed by: cddbd v1.5.2PL0 Copyright (c) Steve Scherf et al.
# Submitted via: ExactAudioCopy v0.99pb4
#
DISCID=ca0ddb0f
DTITLE=Various Artist - Retrochine
DYEAR=2008
DGENRE=Soundtrack
TTITLE0=Hong Kong Central
TTITLE1=Go Go! (Hong Kong Nocturne (香江花月夜))
TTITLE2=Raw Passion (Raw Passions (祼血))
TTITLE3=Let Your Bird Free (The Lark (小雲雀))
TTITLE4=Riding At The Speed Of Sound 
TTITLE5=Woman Trouble (The Lark (小雲雀))
TTITLE6=Fable (The Blue And The Black (藍與黑))
TTITLE7=Remind Me (The Blue And The Black (藍與黑))
TTITLE8=W.O.M.A.N (Hong Kong Nocturne (香江花月夜))
TTITLE9=Slow Me Down (My Love Boat (船))
TTITLE10=The Way Eye See It (Love Parade (花團錦簇))
TTITLE11=Train Tracks (Interlude)
TTITLE12=(21St Century) Char Siu Bao
TTITLE13=Dusk
TTITLE14=Hong Kong Nights (Hong Kong Nocturne (香江花月夜))
EXTD=
EXTT0=
EXTT1=
EXTT2=
EXTT3=
EXTT4=
EXTT5=
EXTT6=
EXTT7=
EXTT8=
EXTT9=
EXTT10=
EXTT11=
EXTT12=
EXTT13=
EXTT14=
PLAYORDER=
